# xmcd
# Track frame offsets:
# 150
# 14729
# 28672
# 47809
# 66209
# 90303
# 105528
# 121596
# 137525
# 153502
# 172936
# 183855
# 198781
# 210424
# 224974
#
# Disc length: 3207 seconds
# Revision: 0
# Processed by: cddbd v1.5.2PL0 Copyright (c) Steve Scherf et al.
# Submitted via: VisiTrax 2.11.3.279 - For more info visit www.synapsa.com
#
DISCID=c80c850f
DTITLE=Various Artist - MIXED COUNTRY VOLUME 6 DISK  #
DYEAR=2010
DGENRE=Country
TTITLE0=Alan Jackson - TOO MUCH OF A GOOD THING
TTITLE1=Alan Jackson - THE TALKIN' SONG REPAIR BLUES
TTITLE2=AMY DALLEY - I WOULD CRY
TTITLE3=BIG and RICH - HOLY WATER
TTITLE4=BIG and RICH - REAL WORLD
TTITLE5=BLAKE SHELTON - GOODBYE TIME
TTITLE6=BRAD PAISLEY - MUD ON THE TIRES
TTITLE7=BROOKS and DUNN - THAT'S WHAT IT'S ALL ABOUT
TTITLE8=CAROLYN DAWN JOHNSON - DIE OF A BROKEN HEART
TTITLE9=CARRIE UNDERWOOD - INSIDE YOUR HEAVEN
TTITLE10=CLINT BLACK - RAINBOW IN THE RAIN
TTITLE11=CRAIG MORGAN - THAT'S WHAT I LOVE ABOUT SUNDAY
TTITLE12=CRAIG MORGAN - LOOK AT US
TTITLE13=GRETCHEN WILSON - WHEN IT RAINS
TTITLE14=JAMIE O'NEAL - TRYING TO FIND ATLANTIS
EXTD=
EXTT0=
EXTT1=
EXTT2=
EXTT3=
EXTT4=
EXTT5=
EXTT6=
EXTT7=
EXTT8=
EXTT9=
EXTT10=
EXTT11=
EXTT12=
EXTT13=
EXTT14=
PLAYORDER=
